%TF.GenerationSoftware,KiCad,Pcbnew,9.0.3*%
%TF.CreationDate,2025-08-13T01:37:55-04:00*%
%TF.ProjectId,getting-started,67657474-696e-4672-9d73-746172746564,1.0*%
%TF.SameCoordinates,Original*%
%TF.FileFunction,Copper,L2,Bot*%
%TF.FilePolarity,Positive*%
%FSLAX46Y46*%
G04 Gerber Fmt 4.6, Leading zero omitted, Abs format (unit mm)*
G04 Created by KiCad (PCBNEW 9.0.3) date 2025-08-13 01:37:55*
%MOMM*%
%LPD*%
G01*
G04 APERTURE LIST*
%TA.AperFunction,ComponentPad*%
%ADD10C,1.600000*%
%TD*%
%TA.AperFunction,ComponentPad*%
%ADD11R,1.800000X1.800000*%
%TD*%
%TA.AperFunction,ComponentPad*%
%ADD12C,1.800000*%
%TD*%
%TA.AperFunction,ComponentPad*%
%ADD13C,2.220000*%
%TD*%
%TA.AperFunction,SMDPad,CuDef*%
%ADD14R,2.540000X3.510000*%
%TD*%
%TA.AperFunction,Conductor*%
%ADD15C,0.200000*%
%TD*%
G04 APERTURE END LIST*
D10*
%TO.P,R1,1*%
%TO.N,VCC*%
X147350000Y-102000000D03*
%TO.P,R1,2*%
%TO.N,/led*%
X134650000Y-102000000D03*
%TD*%
D11*
%TO.P,D1,1,K*%
%TO.N,GND*%
X117460000Y-102000000D03*
D12*
%TO.P,D1,2,A*%
%TO.N,/led*%
X120000000Y-102000000D03*
%TD*%
D13*
%TO.P,SW1,2,A*%
%TO.N,Net-(BT1-+)*%
X156000000Y-94300000D03*
%TO.P,SW1,3,B*%
%TO.N,VCC*%
X156000000Y-99000000D03*
%TD*%
D14*
%TO.P,BT1,1,+*%
%TO.N,Net-(BT1-+)*%
X147500000Y-87000000D03*
%TO.P,BT1,2,-*%
%TO.N,GND*%
X118140000Y-87000000D03*
%TD*%
D15*
%TO.N,GND*%
X118140000Y-101320000D02*
X117460000Y-102000000D01*
X118140000Y-87000000D02*
X118140000Y-101320000D01*
%TO.N,Net-(BT1-+)*%
X156000000Y-87000000D02*
X147500000Y-87000000D01*
X156000000Y-94300000D02*
X156000000Y-87000000D01*
%TD*%
%TA.AperFunction,Conductor*%
%TO.N,GND*%
G36*
X162442539Y-74520185D02*
G01*
X162488294Y-74572989D01*
X162499500Y-74624500D01*
X162499500Y-107375500D01*
X162479815Y-107442539D01*
X162427011Y-107488294D01*
X162375500Y-107499500D01*
X114624500Y-107499500D01*
X114557461Y-107479815D01*
X114511706Y-107427011D01*
X114500500Y-107375500D01*
X114500500Y-101052155D01*
X116060000Y-101052155D01*
X116060000Y-101750000D01*
X117084722Y-101750000D01*
X117040667Y-101826306D01*
X117010000Y-101940756D01*
X117010000Y-102059244D01*
X117040667Y-102173694D01*
X117084722Y-102250000D01*
X116060000Y-102250000D01*
X116060000Y-102947844D01*
X116066401Y-103007372D01*
X116066403Y-103007379D01*
X116116645Y-103142086D01*
X116116649Y-103142093D01*
X116202809Y-103257187D01*
X116202812Y-103257190D01*
X116317906Y-103343350D01*
X116317913Y-103343354D01*
X116452620Y-103393596D01*
X116452627Y-103393598D01*
X116512155Y-103399999D01*
X116512172Y-103400000D01*
X117210000Y-103400000D01*
X117210000Y-102375277D01*
X117286306Y-102419333D01*
X117400756Y-102450000D01*
X117519244Y-102450000D01*
X117633694Y-102419333D01*
X117710000Y-102375277D01*
X117710000Y-103400000D01*
X118407828Y-103400000D01*
X118407844Y-103399999D01*
X118467372Y-103393598D01*
X118467379Y-103393596D01*
X118602086Y-103343354D01*
X118602093Y-103343350D01*
X118717187Y-103257190D01*
X118717190Y-103257187D01*
X118803350Y-103142093D01*
X118803354Y-103142086D01*
X118833213Y-103062031D01*
X118875084Y-103006097D01*
X118940548Y-102981680D01*
X119008821Y-102996531D01*
X119037076Y-103017683D01*
X119087636Y-103068243D01*
X119087641Y-103068247D01*
X119243192Y-103181260D01*
X119265978Y-103197815D01*
X119382501Y-103257187D01*
X119462393Y-103297895D01*
X119462396Y-103297896D01*
X119567221Y-103331955D01*
X119672049Y-103366015D01*
X119889778Y-103400500D01*
X119889779Y-103400500D01*
X120110221Y-103400500D01*
X120110222Y-103400500D01*
X120327951Y-103366015D01*
X120537606Y-103297895D01*
X120734022Y-103197815D01*
X120912365Y-103068242D01*
X121068242Y-102912365D01*
X121197815Y-102734022D01*
X121297895Y-102537606D01*
X121366015Y-102327951D01*
X121400500Y-102110222D01*
X121400500Y-101897648D01*
X133349500Y-101897648D01*
X133349500Y-102102351D01*
X133381522Y-102304534D01*
X133444781Y-102499223D01*
X133537715Y-102681613D01*
X133658028Y-102847213D01*
X133802786Y-102991971D01*
X133957749Y-103104556D01*
X133968390Y-103112287D01*
X134084607Y-103171503D01*
X134150776Y-103205218D01*
X134150778Y-103205218D01*
X134150781Y-103205220D01*
X134255137Y-103239127D01*
X134345465Y-103268477D01*
X134446557Y-103284488D01*
X134547648Y-103300500D01*
X134547649Y-103300500D01*
X134752351Y-103300500D01*
X134752352Y-103300500D01*
X134954534Y-103268477D01*
X135149219Y-103205220D01*
X135331610Y-103112287D01*
X135424590Y-103044732D01*
X135497213Y-102991971D01*
X135497215Y-102991968D01*
X135497219Y-102991966D01*
X135641966Y-102847219D01*
X135641968Y-102847215D01*
X135641971Y-102847213D01*
X135694732Y-102774590D01*
X135762287Y-102681610D01*
X135855220Y-102499219D01*
X135918477Y-102304534D01*
X135950500Y-102102352D01*
X135950500Y-101897648D01*
X146049500Y-101897648D01*
X146049500Y-102102351D01*
X146081522Y-102304534D01*
X146144781Y-102499223D01*
X146237715Y-102681613D01*
X146358028Y-102847213D01*
X146502786Y-102991971D01*
X146657749Y-103104556D01*
X146668390Y-103112287D01*
X146784607Y-103171503D01*
X146850776Y-103205218D01*
X146850778Y-103205218D01*
X146850781Y-103205220D01*
X146955137Y-103239127D01*
X147045465Y-103268477D01*
X147146557Y-103284488D01*
X147247648Y-103300500D01*
X147247649Y-103300500D01*
X147452351Y-103300500D01*
X147452352Y-103300500D01*
X147654534Y-103268477D01*
X147849219Y-103205220D01*
X148031610Y-103112287D01*
X148124590Y-103044732D01*
X148197213Y-102991971D01*
X148197215Y-102991968D01*
X148197219Y-102991966D01*
X148341966Y-102847219D01*
X148341968Y-102847215D01*
X148341971Y-102847213D01*
X148394732Y-102774590D01*
X148462287Y-102681610D01*
X148555220Y-102499219D01*
X148618477Y-102304534D01*
X148650500Y-102102352D01*
X148650500Y-101897648D01*
X148618477Y-101695465D01*
X148589127Y-101605137D01*
X148555220Y-101500781D01*
X148555218Y-101500778D01*
X148555218Y-101500776D01*
X148521503Y-101434607D01*
X148462287Y-101318390D01*
X148424205Y-101265974D01*
X148341971Y-101152786D01*
X148197213Y-101008028D01*
X148031613Y-100887715D01*
X148031612Y-100887714D01*
X148031610Y-100887713D01*
X147973111Y-100857906D01*
X147849223Y-100794781D01*
X147654534Y-100731522D01*
X147468799Y-100702105D01*
X147452352Y-100699500D01*
X147247648Y-100699500D01*
X147231201Y-100702105D01*
X147045465Y-100731522D01*
X146850776Y-100794781D01*
X146668386Y-100887715D01*
X146502786Y-101008028D01*
X146358028Y-101152786D01*
X146237715Y-101318386D01*
X146144781Y-101500776D01*
X146081522Y-101695465D01*
X146049500Y-101897648D01*
X135950500Y-101897648D01*
X135918477Y-101695465D01*
X135889127Y-101605137D01*
X135855220Y-101500781D01*
X135855218Y-101500778D01*
X135855218Y-101500776D01*
X135821503Y-101434607D01*
X135762287Y-101318390D01*
X135724205Y-101265974D01*
X135641971Y-101152786D01*
X135497213Y-101008028D01*
X135331613Y-100887715D01*
X135331612Y-100887714D01*
X135331610Y-100887713D01*
X135273111Y-100857906D01*
X135149223Y-100794781D01*
X134954534Y-100731522D01*
X134768799Y-100702105D01*
X134752352Y-100699500D01*
X134547648Y-100699500D01*
X134531201Y-100702105D01*
X134345465Y-100731522D01*
X134150776Y-100794781D01*
X133968386Y-100887715D01*
X133802786Y-101008028D01*
X133658028Y-101152786D01*
X133537715Y-101318386D01*
X133444781Y-101500776D01*
X133381522Y-101695465D01*
X133349500Y-101897648D01*
X121400500Y-101897648D01*
X121400500Y-101889778D01*
X121366015Y-101672049D01*
X121331955Y-101567221D01*
X121297896Y-101462396D01*
X121297895Y-101462393D01*
X121263237Y-101394375D01*
X121197815Y-101265978D01*
X121115573Y-101152781D01*
X121068247Y-101087641D01*
X121068243Y-101087636D01*
X120912363Y-100931756D01*
X120912358Y-100931752D01*
X120734025Y-100802187D01*
X120734024Y-100802186D01*
X120734022Y-100802185D01*
X120671096Y-100770122D01*
X120537606Y-100702104D01*
X120537603Y-100702103D01*
X120327952Y-100633985D01*
X120179673Y-100610500D01*
X120110222Y-100599500D01*
X119889778Y-100599500D01*
X119820327Y-100610500D01*
X119672047Y-100633985D01*
X119462396Y-100702103D01*
X119462393Y-100702104D01*
X119265974Y-100802187D01*
X119087641Y-100931752D01*
X119087636Y-100931756D01*
X119037075Y-100982317D01*
X118975752Y-101015801D01*
X118906060Y-101010816D01*
X118850127Y-100968945D01*
X118833213Y-100937968D01*
X118803354Y-100857913D01*
X118803350Y-100857906D01*
X118717190Y-100742812D01*
X118717187Y-100742809D01*
X118602093Y-100656649D01*
X118602086Y-100656645D01*
X118467379Y-100606403D01*
X118467372Y-100606401D01*
X118407844Y-100600000D01*
X117710000Y-100600000D01*
X117710000Y-101624722D01*
X117633694Y-101580667D01*
X117519244Y-101550000D01*
X117400756Y-101550000D01*
X117286306Y-101580667D01*
X117210000Y-101624722D01*
X117210000Y-100600000D01*
X116512155Y-100600000D01*
X116452627Y-100606401D01*
X116452620Y-100606403D01*
X116317913Y-100656645D01*
X116317906Y-100656649D01*
X116202812Y-100742809D01*
X116202809Y-100742812D01*
X116116649Y-100857906D01*
X116116645Y-100857913D01*
X116066403Y-100992620D01*
X116066401Y-100992627D01*
X116060000Y-101052155D01*
X114500500Y-101052155D01*
X114500500Y-98873251D01*
X154389500Y-98873251D01*
X154389500Y-99126748D01*
X154429156Y-99377127D01*
X154429156Y-99377130D01*
X154507489Y-99618214D01*
X154507491Y-99618217D01*
X154622577Y-99844086D01*
X154771579Y-100049170D01*
X154950830Y-100228421D01*
X155155914Y-100377423D01*
X155381783Y-100492509D01*
X155381785Y-100492510D01*
X155622870Y-100570843D01*
X155622871Y-100570843D01*
X155622874Y-100570844D01*
X155873251Y-100610500D01*
X155873252Y-100610500D01*
X156126748Y-100610500D01*
X156126749Y-100610500D01*
X156377126Y-100570844D01*
X156377129Y-100570843D01*
X156377130Y-100570843D01*
X156618214Y-100492510D01*
X156618214Y-100492509D01*
X156618217Y-100492509D01*
X156844086Y-100377423D01*
X157049170Y-100228421D01*
X157228421Y-100049170D01*
X157377423Y-99844086D01*
X157492509Y-99618217D01*
X157570844Y-99377126D01*
X157610500Y-99126749D01*
X157610500Y-98873251D01*
X157570844Y-98622874D01*
X157570843Y-98622870D01*
X157570843Y-98622869D01*
X157492510Y-98381785D01*
X157492509Y-98381783D01*
X157377423Y-98155914D01*
X157228421Y-97950830D01*
X157049170Y-97771579D01*
X156844086Y-97622577D01*
X156731151Y-97565034D01*
X156618214Y-97507489D01*
X156377129Y-97429156D01*
X156189343Y-97399414D01*
X156126749Y-97389500D01*
X155873251Y-97389500D01*
X155789792Y-97402718D01*
X155622872Y-97429156D01*
X155622869Y-97429156D01*
X155381785Y-97507489D01*
X155155910Y-97622579D01*
X154950833Y-97771576D01*
X154950827Y-97771581D01*
X154771581Y-97950827D01*
X154771576Y-97950833D01*
X154622579Y-98155910D01*
X154507489Y-98381785D01*
X154429156Y-98622869D01*
X154429156Y-98622872D01*
X154389500Y-98873251D01*
X114500500Y-98873251D01*
X114500500Y-88802844D01*
X116370000Y-88802844D01*
X116376401Y-88862372D01*
X116376403Y-88862379D01*
X116426645Y-88997086D01*
X116426649Y-88997093D01*
X116512809Y-89112187D01*
X116512812Y-89112190D01*
X116627906Y-89198350D01*
X116627913Y-89198354D01*
X116762620Y-89248596D01*
X116762627Y-89248598D01*
X116822155Y-89254999D01*
X116822172Y-89255000D01*
X117890000Y-89255000D01*
X118390000Y-89255000D01*
X119457828Y-89255000D01*
X119457844Y-89254999D01*
X119517372Y-89248598D01*
X119517379Y-89248596D01*
X119652086Y-89198354D01*
X119652093Y-89198350D01*
X119767187Y-89112190D01*
X119767190Y-89112187D01*
X119853350Y-88997093D01*
X119853354Y-88997086D01*
X119903596Y-88862379D01*
X119903598Y-88862372D01*
X119909999Y-88802844D01*
X119910000Y-88802827D01*
X119910000Y-87250000D01*
X118390000Y-87250000D01*
X118390000Y-89255000D01*
X117890000Y-89255000D01*
X117890000Y-87250000D01*
X116370000Y-87250000D01*
X116370000Y-88802844D01*
X114500500Y-88802844D01*
X114500500Y-85197155D01*
X116370000Y-85197155D01*
X116370000Y-86750000D01*
X117890000Y-86750000D01*
X118390000Y-86750000D01*
X119910000Y-86750000D01*
X119910000Y-85197164D01*
X119909997Y-85197135D01*
X145729500Y-85197135D01*
X145729500Y-88802870D01*
X145729501Y-88802876D01*
X145735908Y-88862483D01*
X145786202Y-88997328D01*
X145786206Y-88997335D01*
X145872452Y-89112544D01*
X145872455Y-89112547D01*
X145987664Y-89198793D01*
X145987671Y-89198797D01*
X146122517Y-89249091D01*
X146122516Y-89249091D01*
X146129444Y-89249835D01*
X146182127Y-89255500D01*
X148817872Y-89255499D01*
X148877483Y-89249091D01*
X149012331Y-89198796D01*
X149127546Y-89112546D01*
X149213796Y-88997331D01*
X149264091Y-88862483D01*
X149270500Y-88802873D01*
X149270500Y-87724500D01*
X149290185Y-87657461D01*
X149342989Y-87611706D01*
X149394500Y-87600500D01*
X155275500Y-87600500D01*
X155342539Y-87620185D01*
X155388294Y-87672989D01*
X155399500Y-87724500D01*
X155399500Y-92722476D01*
X155379815Y-92789515D01*
X155331795Y-92832961D01*
X155155910Y-92922579D01*
X154950833Y-93071576D01*
X154950827Y-93071581D01*
X154771581Y-93250827D01*
X154771576Y-93250833D01*
X154622579Y-93455910D01*
X154507489Y-93681785D01*
X154429156Y-93922869D01*
X154429156Y-93922872D01*
X154389500Y-94173251D01*
X154389500Y-94426748D01*
X154429156Y-94677127D01*
X154429156Y-94677130D01*
X154507489Y-94918214D01*
X154507491Y-94918217D01*
X154622577Y-95144086D01*
X154771579Y-95349170D01*
X154950830Y-95528421D01*
X155155914Y-95677423D01*
X155381783Y-95792509D01*
X155381785Y-95792510D01*
X155622870Y-95870843D01*
X155622871Y-95870843D01*
X155622874Y-95870844D01*
X155873251Y-95910500D01*
X155873252Y-95910500D01*
X156126748Y-95910500D01*
X156126749Y-95910500D01*
X156377126Y-95870844D01*
X156377129Y-95870843D01*
X156377130Y-95870843D01*
X156618214Y-95792510D01*
X156618214Y-95792509D01*
X156618217Y-95792509D01*
X156844086Y-95677423D01*
X157049170Y-95528421D01*
X157228421Y-95349170D01*
X157377423Y-95144086D01*
X157492509Y-94918217D01*
X157570844Y-94677126D01*
X157610500Y-94426749D01*
X157610500Y-94173251D01*
X157570844Y-93922874D01*
X157570843Y-93922870D01*
X157570843Y-93922869D01*
X157492510Y-93681785D01*
X157492509Y-93681783D01*
X157377423Y-93455914D01*
X157228421Y-93250830D01*
X157049170Y-93071579D01*
X156844086Y-92922577D01*
X156668205Y-92832961D01*
X156617409Y-92784986D01*
X156600500Y-92722476D01*
X156600500Y-86920945D01*
X156600500Y-86920943D01*
X156559577Y-86768216D01*
X156549060Y-86750000D01*
X156480524Y-86631290D01*
X156480518Y-86631282D01*
X156368717Y-86519481D01*
X156368709Y-86519475D01*
X156231790Y-86440426D01*
X156231786Y-86440424D01*
X156231784Y-86440423D01*
X156079057Y-86399500D01*
X156079056Y-86399500D01*
X149394499Y-86399500D01*
X149327460Y-86379815D01*
X149281705Y-86327011D01*
X149270499Y-86275500D01*
X149270499Y-85197129D01*
X149270498Y-85197123D01*
X149270497Y-85197116D01*
X149264091Y-85137517D01*
X149213884Y-85002906D01*
X149213797Y-85002671D01*
X149213793Y-85002664D01*
X149127547Y-84887455D01*
X149127544Y-84887452D01*
X149012335Y-84801206D01*
X149012328Y-84801202D01*
X148877482Y-84750908D01*
X148877483Y-84750908D01*
X148817883Y-84744501D01*
X148817881Y-84744500D01*
X148817873Y-84744500D01*
X148817864Y-84744500D01*
X146182129Y-84744500D01*
X146182123Y-84744501D01*
X146122516Y-84750908D01*
X145987671Y-84801202D01*
X145987664Y-84801206D01*
X145872455Y-84887452D01*
X145872452Y-84887455D01*
X145786206Y-85002664D01*
X145786202Y-85002671D01*
X145735908Y-85137517D01*
X145729501Y-85197116D01*
X145729501Y-85197123D01*
X145729500Y-85197135D01*
X119909997Y-85197135D01*
X119903598Y-85137627D01*
X119903596Y-85137620D01*
X119853354Y-85002913D01*
X119853350Y-85002906D01*
X119767190Y-84887812D01*
X119767187Y-84887809D01*
X119652093Y-84801649D01*
X119652086Y-84801645D01*
X119517379Y-84751403D01*
X119517372Y-84751401D01*
X119457844Y-84745000D01*
X118390000Y-84745000D01*
X118390000Y-86750000D01*
X117890000Y-86750000D01*
X117890000Y-84745000D01*
X116822155Y-84745000D01*
X116762627Y-84751401D01*
X116762620Y-84751403D01*
X116627913Y-84801645D01*
X116627906Y-84801649D01*
X116512812Y-84887809D01*
X116512809Y-84887812D01*
X116426649Y-85002906D01*
X116426645Y-85002913D01*
X116376403Y-85137620D01*
X116376401Y-85137627D01*
X116370000Y-85197155D01*
X114500500Y-85197155D01*
X114500500Y-74624500D01*
X114520185Y-74557461D01*
X114572989Y-74511706D01*
X114624500Y-74500500D01*
X162375500Y-74500500D01*
X162442539Y-74520185D01*
G37*
%TD.AperFunction*%
%TD*%
M02*
